<?xml version="1.0" standalone="no"?><!DOCTYPE svg PUBLIC "-//W3C//DTD SVG 1.1//EN" "http://www.w3.org/Graphics/SVG/1.1/DTD/svg11.dtd"><svg t="1635239252906" class="icon" viewBox="0 0 1024 1024" version="1.1" xmlns="http://www.w3.org/2000/svg" p-id="3174" xmlns:xlink="http://www.w3.org/1999/xlink" width="200" height="200"><defs><style type="text/css"></style></defs><path d="M701.482667 287.658667a329.6 329.6 0 0 0-68.053334-104c-71.978667-74.069333-172.586667-109.845333-276.096-98.026667-163.904 18.688-289.344 161.152-291.797333 331.456l-3.2 223.68c-1.045333 73.152 37.077333 99.776 73.130667 100.309333l192.064 2.752c52.416 113.856 168.746667 194.432 304.810666 196.394667l247.082667 3.541333a74.752 74.752 0 0 0 75.733333-73.578666l3.541334-247.082667c2.325333-162.730667-108.373333-300.650667-257.216-335.445333zM126.336 641.685333l3.2-223.68C131.52 279.808 232.576 164.266667 364.586667 149.226667c10.517333-1.194667 20.992-1.770667 31.402666-1.770667 72.298667 0 140.8 28.586667 191.552 80.810667 58.048 59.754667 84.501333 141.802667 72.597334 225.109333-18.816 131.52-136.768 229.568-275.392 227.242667l-248.362667-3.562667c-6.933333-0.085333-10.304-17.877333-10.048-35.370667z m764.8 227.562667a10.666667 10.666667 0 0 1-10.816 10.517333l-247.082667-3.541333c-99.562667-1.429333-186.24-54.357333-233.536-132.032 163.370667-5.077333 301.162667-123.562667 323.797334-281.728a336.576 336.576 0 0 0-1.28-101.674667c101.973333 39.914667 174.186667 142.506667 172.48 261.397334l-3.562667 247.061333z" p-id="3175" fill="#d4237a"></path><path d="M447.146667 552.917333l49.216-47.829333 28.608-27.797333a103.104 103.104 0 0 0 31.466666-73.002667 103.104 103.104 0 0 0-29.376-73.877333l-2.389333-2.453334a103.104 103.104 0 0 0-73.002667-31.466666 103.232 103.232 0 0 0-56.64 15.786666 103.168 103.168 0 0 0-56.149333-17.408 103.104 103.104 0 0 0-73.877333 29.376l-2.453334 2.389334a104 104 0 0 0-2.112 146.901333l27.797334 28.608 47.829333 49.216c14.634667 15.061333 34.24 23.509333 55.210667 23.808s40.832-7.637333 55.872-22.250667z m-113.024-95.424l-27.797334-28.608a39.893333 39.893333 0 0 1 0.810667-56.384l2.453333-2.389333a39.808 39.808 0 0 1 56.405334 0.789333l12.928 13.312a21.290667 21.290667 0 0 0 30.165333 0.426667l13.290667-12.928a39.808 39.808 0 0 1 56.405333 0.789333l2.389333 2.453334c15.338667 15.786667 14.997333 41.045333-0.810666 56.384l-28.608 27.797333-49.216 47.829333a14.592 14.592 0 0 1-20.608-0.298666l-47.808-49.173334z" p-id="3176" fill="#d4237a"></path></svg>