<?xml version="1.0" standalone="no"?><!DOCTYPE svg PUBLIC "-//W3C//DTD SVG 1.1//EN" "http://www.w3.org/Graphics/SVG/1.1/DTD/svg11.dtd"><svg class="icon" width="200px" height="200.00px" viewBox="0 0 1024 1024" version="1.1" xmlns="http://www.w3.org/2000/svg"><path fill="#515151" d="M162 372c-16.6 0-30-13.4-30-30V162c0-16.6 13.4-30 30-30h180c16.6 0 30 13.4 30 30s-13.4 30-30 30H192v150c0 16.6-13.4 30-30 30z m700 0c-16.6 0-30-13.4-30-30V192H682c-16.6 0-30-13.4-30-30s13.4-30 30-30h180c16.6 0 30 13.4 30 30v180c0 16.6-13.4 30-30 30zM342 892H162c-16.6 0-30-13.4-30-30V682c0-16.6 13.4-30 30-30s30 13.4 30 30v150h150c16.6 0 30 13.4 30 30s-13.4 30-30 30z m520 0H682c-16.6 0-30-13.4-30-30s13.4-30 30-30h150V682c0-16.6 13.4-30 30-30s30 13.4 30 30v180c0 16.6-13.4 30-30 30z m10-350H152c-16.6 0-30-13.4-30-30s13.4-30 30-30h720c16.6 0 30 13.4 30 30s-13.4 30-30 30z" /></svg>